<svg xmlns="http://www.w3.org/2000/svg" width="500" viewBox="0 0 375 375" height="500" version="1.0"><path fill="#DC4437" d="M290.25 288.832c-17.527 7.918-47.297 9.98-86.785.09a285 285 0 0 0 13.648-5.645c37.61 8.32 66.75 6.211 83.375-1.3l3.899-1.754c-2.051 3.418-7.907 5.797-14.137 8.609m-201.371.84c-6.29-2.688-12.192-4.942-14.305-8.313 1.27.551 2.59 1.098 3.934 1.676 16.219 6.926 44.039 8.55 79.715.445 4.613 2 9.136 3.84 13.586 5.516-37.375 9.574-65.825 7.996-82.93.676m113.066-10.211a324 324 0 0 1-14.37 4.992 339 339 0 0 1-14.302-4.855c4.672-1.34 9.45-2.86 14.32-4.528a308 308 0 0 0 14.352 4.39m116.848-16.813c-21.129 6.48-41.441 4.747-60.258-1.859 44.617-28.758 83.285-69.351 83.121-104.562-.105-.02-4.863-1.137-11.527-4.352 11.258 34.383-34.93 80.3-80.09 105.57a136 136 0 0 1-10.266-5.015c45.72-24.52 91.688-71.145 80.543-106.227-6.21-4.238-12.828-10.094-18.48-18.098a15 15 0 0 1-.406-.44l-.211-.216.117-.066c-4.191-6.098-7.82-13.414-10.297-22.168-37.445-2.352-60.164 48-60.164 48s-16.043 29.277-42.672 58.215c-26.535-27.996-42.703-56.137-42.703-56.137s-23.75-49.867-61.137-46.758c-2.293 8.813-5.773 16.2-9.843 22.383l.117.066-.207.223c-.118.133-.25.29-.39.441-5.49 8.122-11.99 14.11-18.106 18.465-10.262 34.727 34.957 79.492 80.414 103.395a134 134 0 0 1-10.352 5.066c-44.879-24.625-90.129-68.61-79.766-102.578-6.593 3.352-11.328 4.566-11.437 4.586.555 34.563 38.617 73.54 82.766 101.305-17.989 6.27-37.426 7.984-57.75 2.195-8.063-2.293-20.383-4.613-24.524 5.941-3.472 8.844 7.453 12.743 19.38 17.836 29.968 12.82 73.519 24.84 132.972 6.532 61.879 18.836 106.43 5.652 136.785-8.063 11.816-5.344 22.66-9.476 19.012-18.25-4.356-10.457-16.625-7.887-24.637-5.43"/><path fill="#DC4437" d="M70.23 130.695c.137-.152.278-.308.387-.453l.211-.21-.113-.067c4.082-6.211 7.574-13.637 9.87-22.496 0 0-15.042 1.617-26.151 10.351-18.79-17.808-28.836-41.3-28.836-41.3l-6.754 4.066c4.648 22.508 13.093 38.68 22.261 50.234-1.425 1.551-12.882 14.535-10.136 28.809 0 0 23.707-5.914 39.261-28.934m286-55.441-6.84-3.93s-9.562 23.692-27.976 41.871c-11.289-8.504-26.36-9.8-26.36-9.8 2.477 8.8 6.118 16.16 10.325 22.285l-.117.066.222.211c.118.137.262.29.395.434 16.027 22.71 39.844 28.132 39.844 28.132 2.457-14.332-9.266-27.074-10.73-28.593 8.937-11.743 17.046-28.086 21.237-50.676"/></svg>