<svg xmlns="http://www.w3.org/2000/svg" width="500" viewBox="0 0 375 375" height="500" version="1.0"><path d="m38.748 196.249 1.782 39.61 34.078-.11-1.032-12.874-23.218.343-.063-16.5 23.281-.406.344-10.062Zm70.058 39.72-.734-29.891-31.048-.219-.109 30.344Zm-21.61-22.063 10.47-.235-.235 12.594h-9.766Zm57.545 11.891-23.281-.408.047-13.734 23.234.344.688-10.11-34.094-.75-.219 34.72h33.969Zm2.99-29.548.282 9.61 9.25-.297.468-9.765Zm0 39.61h9.485l-.297-26.5-8.625.516Zm36.317-.062-.625-22.235-10.86-.234.908 22.531-12.815.234-.625-30.593 35.922-.344.688 30.422Zm44.148-33.798 1.375 33.86-29.078.063-1.547-18.86 19.36-1.672-.344-4.875-13.328.688-.407-8.11Zm-20.281 20.174-.125 6.499 10.578.296.11-6.5Zm47.983 13.624-.625-22.235-10.86-.234.908 22.531-12.815.234-.625-30.593 35.922-.344.688 30.422Zm35.93-24.938H271.14l-.344 25 31.204-.281.063-41.969h-10.345Zm-10.75 8.438 10.468.171-.343 8.688-10.235-.11Zm55.178 16.672-.734-29.891-31.048-.219-.109 30.344Zm-21.61-22.063 10.47-.235-.235 12.594h-9.766Zm-184.855 27.343.219 38.86 8.922-.172v-16.5l7.344-.281-.735-7.531h-7.703v-6.391h11.375l-.281-7.812Zm50.977 5 1.375 33.86-29.078.063-1.547-18.86 19.36-1.672-.344-4.875-13.328.688-.407-8.11Zm-20.281 20.174-.125 6.499 10.578.296.11-6.5Zm57.593 3.624-23.281-.408.047-13.734 23.234.344.688-10.11-34.094-.75-.219 34.72h33.969Zm2.99-29.548.282 9.61 9.25-.297.468-9.765Zm0 39.61h9.485l-.297-26.5-8.625.516Zm13.161-39.484-.86 39.312 11.266.172.562-39.844Zm-105.942 79.464h-3.328v8.906h-1.766v-8.906h-3.312v-1.594h8.406Zm8.654.922v7.984h-1.72v-1.562c-.522 1.062-1.476 1.6-2.858 1.625q-1.36.002-2.14-.829c-.524-.55-.781-1.3-.781-2.25v-4.968h1.733v4.484q-.001.907.484 1.422.498.515 1.375.515.996-.011 1.594-.703.593-.702.594-1.78v-3.938Zm0 0"/><g transform="translate(138.222 328.995)"/><path d="M152.655 328.995h-1.783l-2.03-5.906-2.031 5.906h-1.766l-2.937-7.984h1.764l2.078 6.28 2-6.28h1.797l2.016 6.28 2.047-6.28h1.75Zm7.395-8.047q2.043.001 2.968 1.25.92 1.236.766 3.469h-6.031c.132.617.422 1.105.859 1.469q.67.531 1.61.53 1.359 0 2.25-.937l.921.97q-1.235 1.357-3.296 1.358-1.844.002-2.968-1.11-1.114-1.123-1.112-2.921 0-1.811 1.125-2.937t2.907-1.14m-2.328 3.452h4.563q-.047-.95-.656-1.5-.597-.562-1.563-.562-.956 0-1.578.562-.611.55-.766 1.5m12.446-3.453c1.132 0 2.05.383 2.75 1.14q1.06 1.125 1.062 2.954 0 1.8-1.031 2.906-1.033 1.112-2.751 1.11-1.922.002-2.812-1.438v1.375h-1.734V317.87h1.734v4.531q.89-1.453 2.781-1.453m-2.109 5.922q.685.72 1.75.719 1.06 0 1.75-.719.687-.731.688-1.89-.001-1.125-.688-1.845-.69-.734-1.75-.735-1.065 0-1.75.735-.674.719-.672 1.843 0 1.16.672 1.891m0 0"/><g transform="translate(174.507 328.995)"/><path d="M187.252 317.87v11.125h-1.719v-1.36c-.593.963-1.531 1.439-2.812 1.439q-1.705 0-2.766-1.125-1.048-1.14-1.047-2.97 0-1.794 1.047-2.921c.695-.75 1.61-1.125 2.734-1.125 1.282 0 2.227.492 2.844 1.468v-4.531Zm-5.937 9.047q.686.72 1.765.719 1.092 0 1.766-.72.686-.73.687-1.874 0-1.154-.687-1.89-.676-.734-1.766-.735-1.079.001-1.766.734-.675.737-.687 1.89.013 1.144.688 1.876m11.855-5.969q2.043.001 2.968 1.25.92 1.236.766 3.469h-6.031c.132.617.422 1.105.859 1.469q.67.531 1.61.53 1.359 0 2.25-.937l.921.97q-1.235 1.357-3.296 1.358-1.844.002-2.968-1.11-1.114-1.123-1.112-2.921 0-1.811 1.125-2.937t2.907-1.14m-2.328 3.452h4.563q-.047-.95-.656-1.5-.597-.562-1.563-.562-.956 0-1.578.562-.611.55-.766 1.5m0 0"/><g transform="translate(197.427 328.995)"/><path d="M204.297 321.011v1.593c.55-1.101 1.473-1.656 2.766-1.656v1.656q-1.19-.058-1.922.563-.738.61-.844 1.656v4.172h-1.719v-7.984Zm7.473-.063q2.043.001 2.968 1.25.92 1.236.766 3.469h-6.031c.132.617.422 1.105.859 1.469q.67.531 1.61.53 1.359 0 2.25-.937l.921.97q-1.235 1.357-3.296 1.358-1.844.002-2.968-1.11-1.114-1.123-1.112-2.921 0-1.811 1.125-2.937t2.907-1.14m-2.328 3.452h4.563q-.047-.95-.656-1.5-.597-.562-1.563-.562-.956 0-1.578.562-.611.55-.766 1.5m11.133-3.453q2.155 0 3.297 1.313l-.938 1.109q-.909-.919-2.281-.906-1.05.002-1.719.718-.656.72-.656 1.844 0 1.127.656 1.844.67.703 1.719.703c1.02 0 1.8-.32 2.344-.969l.968.97q-1.125 1.484-3.39 1.483-1.781.003-2.907-1.109-1.112-1.124-1.11-2.922c0-1.219.367-2.203 1.11-2.953q1.124-1.125 2.906-1.125m8.477 0q2.043.001 2.968 1.25.92 1.236.766 3.469h-6.031c.132.617.422 1.105.859 1.469q.67.531 1.61.53 1.359 0 2.25-.937l.921.97q-1.235 1.357-3.296 1.358-1.844.002-2.968-1.11-1.114-1.123-1.112-2.921 0-1.811 1.125-2.937t2.907-1.14m-2.328 3.452h4.563q-.047-.95-.656-1.5-.597-.562-1.563-.562-.956 0-1.578.562-.611.55-.766 1.5m11.946 2.766.437 1.312c-.668.399-1.328.594-1.984.594q-.973.002-1.595-.578-.626-.591-.625-1.75v-4.14h-1.124v-1.298h1.125v-2.187h1.703v2.188h2.36v1.296h-2.36v3.829q-.001.598.203.843.217.235.656.235.482 0 1.203-.344m6.809 1.828v-.969q-.861 1.049-2.641 1.047c-.856 0-1.54-.226-2.047-.687q-.767-.703-.766-1.797 0-1.09.797-1.735.797-.638 2.219-.656h2.422v-.25q-.001-.761-.5-1.172-.487-.421-1.407-.421c-.774 0-1.559.274-2.36.813l-.703-1.203q.92-.546 1.64-.782.732-.234 1.798-.234 1.528 0 2.359.75.843.738.86 2.063l.016 5.233Zm-2.283-1.297q.902 0 1.547-.422.638-.42.719-1.093v-.735h-2.156q-.862.002-1.266.25-.391.253-.39.828c0 .356.132.64.406.86q.42.313 1.14.312m8.666-6.765q1.654.002 2.797.812l-.64 1.281q-1.126-.703-2.282-.703-1.172 0-1.172.797 0 .394.422.64.436.253 1.063.423.622.174 1.25.406a2.4 2.4 0 0 1 1.047.765c.289.344.437.79.437 1.329q-.001 1.158-.875 1.765-.877.61-2.172.61a5.3 5.3 0 0 1-1.765-.297 4.3 4.3 0 0 1-1.453-.813l.625-1.233q.497.456 1.234.719c.5.18.973.265 1.422.265q.59.001.953-.203.359-.2.36-.64c0-.301-.15-.54-.438-.72a3.6 3.6 0 0 0-1.047-.437q-.61-.169-1.235-.39a2.55 2.55 0 0 1-1.046-.75q-.423-.517-.422-1.314 0-1.138.844-1.719.856-.592 2.093-.593m0 0"/><path fill="#DC4437" d="M234.871 157.941c-8.059 3.641-21.742 4.586-39.894.04a128 128 0 0 0 6.273-2.594c17.29 3.824 30.688 2.855 38.328-.598l1.793-.805c-.941 1.57-3.637 2.664-6.5 3.957m-92.57.387c-2.89-1.238-5.606-2.273-6.578-3.82.586.25 1.191.504 1.808.77 7.457 3.183 20.246 3.929 36.645.202q3.18 1.382 6.25 2.536c-17.184 4.402-30.262 3.675-38.125.312m51.976-4.695q-3.384 1.267-6.605 2.293a152 152 0 0 1-6.574-2.23 130 130 0 0 0 6.582-2.083c2.25.75 4.445 1.418 6.597 2.02m53.72-7.73c-9.716 2.98-19.052 2.183-27.704-.852 20.512-13.223 38.285-31.883 38.21-48.07-.046-.008-2.233-.52-5.296-2 5.172 15.804-16.059 36.914-36.82 48.53a63 63 0 0 1-4.719-2.304c21.016-11.273 42.148-32.707 37.027-48.836-2.855-1.945-5.898-4.637-8.496-8.316a8 8 0 0 1-.187-.203l-.098-.098.055-.031c-1.926-2.805-3.598-6.168-4.735-10.192-17.214-1.082-27.656 22.067-27.656 22.067s-7.375 13.457-19.617 26.761c-12.2-12.87-19.633-25.808-19.633-25.808s-10.918-22.922-28.105-21.492c-1.051 4.05-2.653 7.445-4.524 10.289l.055.03-.098.102a4 4 0 0 1-.18.204c-2.523 3.73-5.511 6.484-8.324 8.488-4.715 15.965 16.075 36.543 36.97 47.531a62 62 0 0 1-4.759 2.328c-20.633-11.32-41.433-31.539-36.668-47.156-3.03 1.543-5.207 2.098-5.257 2.11.253 15.886 17.75 33.804 38.046 46.57-8.27 2.882-17.203 3.668-26.547 1.007-3.707-1.054-9.37-2.12-11.273 2.735-1.598 4.062 3.426 5.855 8.906 8.2 13.778 5.89 33.797 11.417 61.13 3 28.445 8.66 48.925 2.597 62.882-3.708 5.43-2.457 10.418-4.355 8.738-8.387-2-4.808-7.64-3.629-11.324-2.5"/><path fill="#DC4437" d="M133.727 85.246c.062-.07.128-.144.18-.21l.097-.099-.055-.027c1.88-2.855 3.485-6.27 4.54-10.344 0 0-6.915.743-12.024 4.758-8.637-8.183-13.254-18.984-13.254-18.984l-3.106 1.87c2.137 10.345 6.02 17.778 10.235 23.09-.656.716-5.926 6.684-4.66 13.243 0 0 10.898-2.715 18.047-13.297m131.476-25.488-3.144-1.809s-4.395 10.89-12.86 19.25c-5.191-3.906-12.117-4.504-12.117-4.504 1.137 4.043 2.809 7.426 4.746 10.243l-.055.03.102.098c.055.063.121.133.184.2 7.367 10.441 18.312 12.933 18.312 12.933 1.133-6.59-4.258-12.445-4.93-13.144 4.11-5.399 7.836-12.91 9.762-23.297"/></svg>